<svg width="410" height="519" viewBox="0 0 410 519" fill="none" xmlns="http://www.w3.org/2000/svg">
<path fill-rule="evenodd" clip-rule="evenodd" d="M6.53961 32.7606C0 45.5953 0 62.3969 0 96V423C0 456.603 0 473.405 6.53961 486.239C12.292 497.529 21.4708 506.708 32.7606 512.46C45.5953 519 62.3969 519 96 519H129C129 474.817 163.026 439 205 439C246.974 439 281 474.817 281 519H314C347.603 519 364.405 519 377.239 512.46C388.529 506.708 397.708 497.529 403.46 486.239C410 473.405 410 456.603 410 423V96C410 62.3969 410 45.5953 403.46 32.7606C397.708 21.4708 388.529 12.292 377.239 6.53961C364.405 0 347.603 0 314 0H96C62.3969 0 45.5953 0 32.7606 6.53961C21.4708 12.292 12.292 21.4708 6.53961 32.7606Z" fill="#313179"/>
</svg>
