<svg width="298" height="15" viewBox="0 0 298 15" fill="none" xmlns="http://www.w3.org/2000/svg">
<path d="M0 10H105" stroke="#A39797" stroke-width="0.6"/>
<path d="M193 10H298" stroke="#A39797" stroke-width="0.6"/>
<path d="M113.776 12.12C113.184 12.12 112.632 12.012 112.12 11.796C111.608 11.572 111.16 11.264 110.776 10.872C110.392 10.472 110.092 10.012 109.876 9.492C109.668 8.972 109.564 8.416 109.564 7.824C109.564 7.224 109.668 6.668 109.876 6.156C110.092 5.636 110.388 5.18 110.764 4.788C111.148 4.396 111.592 4.092 112.096 3.876C112.608 3.66 113.16 3.552 113.752 3.552C114.344 3.552 114.892 3.66 115.396 3.876C115.908 4.092 116.356 4.396 116.74 4.788C117.124 5.18 117.424 5.636 117.64 6.156C117.856 6.676 117.964 7.236 117.964 7.836C117.964 8.428 117.856 8.984 117.64 9.504C117.424 10.024 117.124 10.48 116.74 10.872C116.364 11.264 115.92 11.572 115.408 11.796C114.904 12.012 114.36 12.12 113.776 12.12ZM113.752 11.04C114.352 11.04 114.876 10.904 115.324 10.632C115.78 10.352 116.14 9.972 116.404 9.492C116.668 9.004 116.8 8.448 116.8 7.824C116.8 7.36 116.724 6.936 116.572 6.552C116.42 6.16 116.208 5.82 115.936 5.532C115.664 5.244 115.344 5.024 114.976 4.872C114.608 4.712 114.2 4.632 113.752 4.632C113.16 4.632 112.636 4.768 112.18 5.04C111.732 5.312 111.376 5.688 111.112 6.168C110.856 6.648 110.728 7.2 110.728 7.824C110.728 8.288 110.8 8.72 110.944 9.12C111.096 9.512 111.304 9.852 111.568 10.14C111.84 10.42 112.16 10.64 112.528 10.8C112.904 10.96 113.312 11.04 113.752 11.04ZM119.319 12V6.3H120.399V12H119.319ZM120.399 8.748L119.991 8.568C119.991 7.84 120.159 7.26 120.495 6.828C120.831 6.396 121.315 6.18 121.947 6.18C122.235 6.18 122.495 6.232 122.727 6.336C122.959 6.432 123.175 6.596 123.375 6.828L122.667 7.56C122.547 7.432 122.415 7.34 122.271 7.284C122.127 7.228 121.959 7.2 121.767 7.2C121.367 7.2 121.039 7.328 120.783 7.584C120.527 7.84 120.399 8.228 120.399 8.748ZM128.655 12.12C128.335 12.12 128.031 12.08 127.743 12C127.463 11.912 127.203 11.792 126.963 11.64C126.723 11.48 126.515 11.292 126.339 11.076L127.035 10.38C127.243 10.636 127.483 10.828 127.755 10.956C128.027 11.076 128.331 11.136 128.667 11.136C129.003 11.136 129.263 11.08 129.447 10.968C129.631 10.848 129.723 10.684 129.723 10.476C129.723 10.268 129.647 10.108 129.495 9.996C129.351 9.876 129.163 9.78 128.931 9.708C128.699 9.628 128.451 9.552 128.187 9.48C127.931 9.4 127.687 9.3 127.455 9.18C127.223 9.06 127.031 8.896 126.879 8.688C126.735 8.48 126.663 8.204 126.663 7.86C126.663 7.516 126.747 7.22 126.915 6.972C127.083 6.716 127.315 6.52 127.611 6.384C127.915 6.248 128.279 6.18 128.703 6.18C129.151 6.18 129.547 6.26 129.891 6.42C130.243 6.572 130.531 6.804 130.755 7.116L130.059 7.812C129.899 7.604 129.699 7.444 129.459 7.332C129.227 7.22 128.963 7.164 128.667 7.164C128.355 7.164 128.115 7.22 127.947 7.332C127.787 7.436 127.707 7.584 127.707 7.776C127.707 7.968 127.779 8.116 127.923 8.22C128.067 8.324 128.255 8.412 128.487 8.484C128.727 8.556 128.975 8.632 129.231 8.712C129.487 8.784 129.731 8.884 129.963 9.012C130.195 9.14 130.383 9.312 130.527 9.528C130.679 9.744 130.755 10.028 130.755 10.38C130.755 10.916 130.563 11.34 130.179 11.652C129.803 11.964 129.295 12.12 128.655 12.12ZM131.976 12V6.3H133.056V12H131.976ZM132.516 5.16C132.316 5.16 132.152 5.096 132.024 4.968C131.896 4.832 131.832 4.664 131.832 4.464C131.832 4.272 131.896 4.112 132.024 3.984C132.152 3.848 132.316 3.78 132.516 3.78C132.716 3.78 132.88 3.848 133.008 3.984C133.136 4.112 133.2 4.272 133.2 4.464C133.2 4.664 133.136 4.832 133.008 4.968C132.88 5.096 132.716 5.16 132.516 5.16ZM137.011 14.508C136.427 14.508 135.907 14.4 135.451 14.184C135.003 13.968 134.643 13.664 134.371 13.272L135.067 12.564C135.299 12.86 135.575 13.084 135.895 13.236C136.215 13.396 136.595 13.476 137.035 13.476C137.619 13.476 138.079 13.32 138.415 13.008C138.759 12.704 138.931 12.292 138.931 11.772V10.356L139.123 9.072L138.931 7.8V6.3H140.011V11.772C140.011 12.316 139.883 12.792 139.627 13.2C139.379 13.608 139.027 13.928 138.571 14.16C138.123 14.392 137.603 14.508 137.011 14.508ZM137.011 11.904C136.491 11.904 136.023 11.78 135.607 11.532C135.199 11.284 134.875 10.944 134.635 10.512C134.395 10.072 134.275 9.58 134.275 9.036C134.275 8.492 134.395 8.008 134.635 7.584C134.875 7.152 135.199 6.812 135.607 6.564C136.023 6.308 136.491 6.18 137.011 6.18C137.459 6.18 137.855 6.268 138.199 6.444C138.543 6.62 138.815 6.868 139.015 7.188C139.223 7.5 139.335 7.868 139.351 8.292V9.804C139.327 10.22 139.211 10.588 139.003 10.908C138.803 11.22 138.531 11.464 138.187 11.64C137.843 11.816 137.451 11.904 137.011 11.904ZM137.227 10.884C137.579 10.884 137.887 10.808 138.151 10.656C138.423 10.504 138.631 10.292 138.775 10.02C138.919 9.74 138.991 9.416 138.991 9.048C138.991 8.68 138.915 8.36 138.763 8.088C138.619 7.808 138.415 7.592 138.151 7.44C137.887 7.28 137.575 7.2 137.215 7.2C136.855 7.2 136.539 7.28 136.267 7.44C135.995 7.592 135.779 7.808 135.619 8.088C135.467 8.36 135.391 8.676 135.391 9.036C135.391 9.396 135.467 9.716 135.619 9.996C135.779 10.276 135.995 10.496 136.267 10.656C136.547 10.808 136.867 10.884 137.227 10.884ZM145.629 12V8.676C145.629 8.244 145.493 7.888 145.221 7.608C144.949 7.328 144.597 7.188 144.165 7.188C143.877 7.188 143.621 7.252 143.397 7.38C143.173 7.508 142.997 7.684 142.869 7.908C142.741 8.132 142.677 8.388 142.677 8.676L142.233 8.424C142.233 7.992 142.329 7.608 142.521 7.272C142.713 6.936 142.981 6.672 143.325 6.48C143.669 6.28 144.057 6.18 144.489 6.18C144.921 6.18 145.301 6.288 145.629 6.504C145.965 6.72 146.229 7.004 146.421 7.356C146.613 7.7 146.709 8.068 146.709 8.46V12H145.629ZM141.597 12V6.3H142.677V12H141.597ZM152.959 12.12C152.495 12.12 152.075 12.016 151.699 11.808C151.331 11.592 151.043 11.296 150.835 10.92C150.627 10.544 150.523 10.108 150.523 9.612V6.3H151.603V9.564C151.603 9.876 151.655 10.148 151.759 10.38C151.871 10.604 152.031 10.776 152.239 10.896C152.447 11.016 152.691 11.076 152.971 11.076C153.395 11.076 153.727 10.944 153.967 10.68C154.207 10.408 154.327 10.036 154.327 9.564V6.3H155.407V9.612C155.407 10.108 155.303 10.544 155.095 10.92C154.887 11.296 154.599 11.592 154.231 11.808C153.871 12.016 153.447 12.12 152.959 12.12ZM159.855 12.12C159.423 12.12 159.031 12.032 158.679 11.856C158.335 11.672 158.059 11.42 157.851 11.1C157.643 10.78 157.527 10.416 157.503 10.008V8.292C157.527 7.876 157.643 7.512 157.851 7.2C158.067 6.88 158.347 6.632 158.691 6.456C159.043 6.272 159.431 6.18 159.855 6.18C160.375 6.18 160.843 6.312 161.259 6.576C161.683 6.84 162.015 7.196 162.255 7.644C162.495 8.092 162.615 8.596 162.615 9.156C162.615 9.716 162.495 10.22 162.255 10.668C162.015 11.116 161.683 11.472 161.259 11.736C160.843 11.992 160.375 12.12 159.855 12.12ZM159.675 11.1C160.035 11.1 160.351 11.016 160.623 10.848C160.895 10.68 161.111 10.452 161.271 10.164C161.431 9.868 161.511 9.528 161.511 9.144C161.511 8.768 161.431 8.432 161.271 8.136C161.111 7.84 160.895 7.612 160.623 7.452C160.351 7.284 160.039 7.2 159.687 7.2C159.327 7.2 159.011 7.284 158.739 7.452C158.467 7.612 158.255 7.84 158.103 8.136C157.951 8.432 157.875 8.772 157.875 9.156C157.875 9.532 157.947 9.868 158.091 10.164C158.243 10.452 158.455 10.68 158.727 10.848C159.007 11.016 159.323 11.1 159.675 11.1ZM156.854 14.388V6.3H157.935V7.8L157.731 9.18L157.935 10.572V14.388H156.854ZM167.967 12L165.711 6.3H166.839L168.471 10.74H168.111L169.731 6.3H170.355L171.975 10.74H171.615L173.247 6.3H174.375L172.131 12H171.495L169.851 7.692H170.247L168.591 12H167.967ZM175.253 12V6.3H176.333V12H175.253ZM175.793 5.16C175.593 5.16 175.429 5.096 175.301 4.968C175.173 4.832 175.109 4.664 175.109 4.464C175.109 4.272 175.173 4.112 175.301 3.984C175.429 3.848 175.593 3.78 175.793 3.78C175.993 3.78 176.157 3.848 176.285 3.984C176.413 4.112 176.477 4.272 176.477 4.464C176.477 4.664 176.413 4.832 176.285 4.968C176.157 5.096 175.993 5.16 175.793 5.16ZM178.801 12V3.912H179.881V12H178.801ZM177.397 7.284V6.3H181.285V7.284H177.397ZM186.375 12V8.676C186.375 8.244 186.239 7.888 185.967 7.608C185.695 7.328 185.343 7.188 184.911 7.188C184.623 7.188 184.367 7.252 184.143 7.38C183.919 7.508 183.743 7.684 183.615 7.908C183.487 8.132 183.423 8.388 183.423 8.676L182.979 8.424C182.979 7.992 183.075 7.608 183.267 7.272C183.459 6.936 183.727 6.672 184.071 6.48C184.415 6.28 184.803 6.18 185.235 6.18C185.667 6.18 186.047 6.276 186.375 6.468C186.711 6.66 186.975 6.928 187.167 7.272C187.359 7.616 187.455 8.012 187.455 8.46V12H186.375ZM182.343 12V3.432H183.423V12H182.343Z" fill="#757171"/>
</svg>
